<svg width="25" height="24" viewBox="0 0 25 24" fill="none" xmlns="http://www.w3.org/2000/svg">
<mask id="mask0_1_150" style="mask-type:alpha" maskUnits="userSpaceOnUse" x="0" y="0" width="25" height="24">
<rect x="0.5" width="24" height="24" fill="#D9D9D9"/>
</mask>
<g mask="url(#mask0_1_150)">
<path d="M10.05 15.15L18.525 6.675C18.725 6.475 18.9625 6.375 19.2375 6.375C19.5125 6.375 19.75 6.475 19.95 6.675C20.15 6.875 20.25 7.1125 20.25 7.3875C20.25 7.6625 20.15 7.9 19.95 8.1L10.75 17.3C10.55 17.5 10.3167 17.6 10.05 17.6C9.78336 17.6 9.55002 17.5 9.35002 17.3L5.05002 13C4.85002 12.8 4.75419 12.5625 4.76252 12.2875C4.77086 12.0125 4.87502 11.775 5.07502 11.575C5.27502 11.375 5.51252 11.275 5.78752 11.275C6.06252 11.275 6.30002 11.375 6.50002 11.575L10.05 15.15Z" fill="#FFF8DC"/>
</g>
</svg>
