<svg width="24" height="24" viewBox="0 0 24 24" fill="none" xmlns="http://www.w3.org/2000/svg">
<mask id="mask0_1_51" style="mask-type:alpha" maskUnits="userSpaceOnUse" x="0" y="0" width="24" height="24">
<rect width="24" height="24" fill="#D9D9D9"/>
</mask>
<g mask="url(#mask0_1_51)">
<path d="M11 13V16C11 16.2833 11.0959 16.5208 11.2875 16.7125C11.4792 16.9042 11.7167 17 12 17C12.2834 17 12.5209 16.9042 12.7125 16.7125C12.9042 16.5208 13 16.2833 13 16V13H16C16.2834 13 16.5209 12.9042 16.7125 12.7125C16.9042 12.5208 17 12.2833 17 12C17 11.7167 16.9042 11.4792 16.7125 11.2875C16.5209 11.0958 16.2834 11 16 11H13V8C13 7.71667 12.9042 7.47917 12.7125 7.2875C12.5209 7.09583 12.2834 7 12 7C11.7167 7 11.4792 7.09583 11.2875 7.2875C11.0959 7.47917 11 7.71667 11 8V11H8.00003C7.7167 11 7.4792 11.0958 7.28753 11.2875C7.09586 11.4792 7.00003 11.7167 7.00003 12C7.00003 12.2833 7.09586 12.5208 7.28753 12.7125C7.4792 12.9042 7.7167 13 8.00003 13H11ZM12 22C10.6167 22 9.3167 21.7375 8.10003 21.2125C6.88336 20.6875 5.82503 19.975 4.92503 19.075C4.02503 18.175 3.31253 17.1167 2.78753 15.9C2.26253 14.6833 2.00003 13.3833 2.00003 12C2.00003 10.6167 2.26253 9.31667 2.78753 8.1C3.31253 6.88333 4.02503 5.825 4.92503 4.925C5.82503 4.025 6.88336 3.3125 8.10003 2.7875C9.3167 2.2625 10.6167 2 12 2C13.3834 2 14.6834 2.2625 15.9 2.7875C17.1167 3.3125 18.175 4.025 19.075 4.925C19.975 5.825 20.6875 6.88333 21.2125 8.1C21.7375 9.31667 22 10.6167 22 12C22 13.3833 21.7375 14.6833 21.2125 15.9C20.6875 17.1167 19.975 18.175 19.075 19.075C18.175 19.975 17.1167 20.6875 15.9 21.2125C14.6834 21.7375 13.3834 22 12 22ZM12 20C14.2334 20 16.125 19.225 17.675 17.675C19.225 16.125 20 14.2333 20 12C20 9.76667 19.225 7.875 17.675 6.325C16.125 4.775 14.2334 4 12 4C9.7667 4 7.87503 4.775 6.32503 6.325C4.77503 7.875 4.00003 9.76667 4.00003 12C4.00003 14.2333 4.77503 16.125 6.32503 17.675C7.87503 19.225 9.7667 20 12 20Z" fill="#58533D"/>
</g>
</svg>
