<svg width="25" height="24" viewBox="0 0 25 24" fill="none" xmlns="http://www.w3.org/2000/svg">
<mask id="mask0_1_145" style="mask-type:alpha" maskUnits="userSpaceOnUse" x="0" y="0" width="25" height="24">
<rect x="0.5" width="24" height="24" fill="#D9D9D9"/>
</mask>
<g mask="url(#mask0_1_145)">
<path d="M12.5 13.4L7.59999 18.3C7.41665 18.4833 7.18332 18.575 6.89999 18.575C6.61665 18.575 6.38332 18.4833 6.19999 18.3C6.01665 18.1167 5.92499 17.8833 5.92499 17.6C5.92499 17.3167 6.01665 17.0833 6.19999 16.9L11.1 12L6.19999 7.09999C6.01665 6.91665 5.92499 6.68332 5.92499 6.39999C5.92499 6.11665 6.01665 5.88332 6.19999 5.69999C6.38332 5.51665 6.61665 5.42499 6.89999 5.42499C7.18332 5.42499 7.41665 5.51665 7.59999 5.69999L12.5 10.6L17.4 5.69999C17.5833 5.51665 17.8167 5.42499 18.1 5.42499C18.3833 5.42499 18.6167 5.51665 18.8 5.69999C18.9833 5.88332 19.075 6.11665 19.075 6.39999C19.075 6.68332 18.9833 6.91665 18.8 7.09999L13.9 12L18.8 16.9C18.9833 17.0833 19.075 17.3167 19.075 17.6C19.075 17.8833 18.9833 18.1167 18.8 18.3C18.6167 18.4833 18.3833 18.575 18.1 18.575C17.8167 18.575 17.5833 18.4833 17.4 18.3L12.5 13.4Z" fill="#58533D"/>
</g>
</svg>
